<?xml version="1.0" encoding="utf-8"?>
<!-- Generator: Adobe Illustrator 25.0.0, SVG Export Plug-In . SVG Version: 6.00 Build 0)  -->
<svg version="1.1" id="Capa_1" xmlns="http://www.w3.org/2000/svg" xmlns:xlink="http://www.w3.org/1999/xlink" x="0px" y="0px"
	 viewBox="0 0 32.9 32.8" style="enable-background:new 0 0 32.9 32.8;" xml:space="preserve">
<path d="M29.9,15.9c-0.2-0.2-0.5-0.3-0.8-0.3h-0.6c-0.1-0.1-0.2-0.3-0.2-0.4L28,14.8c0.3-0.4,0.5-1,0.6-1.5c0-0.8-0.3-1.6-0.9-2.2
	l0,0c0.5-1.1,0.3-2.3-0.5-3.2L26,6.8c-0.7-0.7-1.8-0.9-2.6-0.4L22,7.1c-1.1,0.6-1.6,1.7-1.4,2.9l0,0c-0.7,0.3-1.2,0.8-1.4,1.5
	c-0.2-0.7-0.7-1.2-1.3-1.5l-0.2-0.1c0-0.5-0.1-0.9-0.3-1.3C17,8,16.4,7.5,15.8,7.3c-0.1-1-0.8-1.8-1.8-2.1l-1.3-0.4
	c-0.8-0.2-1.8,0.1-2.2,0.9L9.8,6.9C9.3,7.7,9.3,8.8,9.9,9.6C8.2,8.8,6.5,8.7,6.5,8.7L5.9,8.6L5.7,9.1c-0.1,0.2-2,3.5-1.3,6.5H4
	c-0.3,0-0.6,0.1-0.8,0.3c-0.2,0.2-0.3,0.5-0.3,0.8c0.1,4.1,2,7.9,5.3,10.4c0.5,0.4,1.1,0.6,1.7,0.6h13.4c0.6,0,1.2-0.2,1.7-0.6
	c3.3-2.5,5.2-6.3,5.3-10.4C30.2,16.4,30.1,16.1,29.9,15.9z M3.3,16.7L3.3,16.7L3.3,16.7C3.3,16.7,3.3,16.7,3.3,16.7z M20.6,12.2
	c0.1-0.4,0.3-0.6,0.7-0.8l1.2-0.6l-0.3-0.9c-0.2-0.6,0.1-1.2,0.6-1.4l1.4-0.7c0.2-0.1,0.6-0.1,0.7,0.1L26,9c0.4,0.4,0.5,1.1,0.1,1.5
	l-0.6,0.8l1,0.9c0.3,0.2,0.4,0.6,0.4,1c0,0.4-0.2,0.7-0.5,0.9l-0.6,0.5l0.7,0.9h-2.4l0.1-0.7l2.2-1c0.2-0.1,0.3-0.2,0.4-0.4
	c0.1-0.2,0.1-0.4,0-0.6c-0.2-0.4-0.7-0.6-1.1-0.4l-1.2,0.6l0.4-2.5c0-0.2,0-0.4-0.1-0.6c-0.1-0.2-0.3-0.3-0.5-0.3
	c-0.2,0-0.4,0-0.6,0.1c-0.2,0.1-0.3,0.3-0.3,0.5L23,12.6l-1-0.9c-0.2-0.1-0.4-0.2-0.6-0.2c-0.2,0-0.4,0.1-0.5,0.3
	c-0.1,0.2-0.2,0.4-0.2,0.6c0,0.2,0.1,0.4,0.3,0.6l1.8,1.6l-0.2,1h-2.3c0-0.3-0.1-0.5-0.1-0.8l1.2-0.9l-0.5-0.6
	C20.5,12.9,20.5,12.6,20.6,12.2z M13.2,15.5l0.1-0.3c0.3-1.1,1.3-2,2.6-2c0.9,0,1.6,0.4,2.1,1.1c0,0,0.1,0.1,0.1,0.1
	c0,0,0,0.1,0.1,0.1c0.1,0.1,0.1,0.2,0.2,0.4l0,0c0,0.1,0.1,0.2,0.1,0.4l0,0l0,0c0,0,0,0.1,0,0.1l0,0l0,0c0,0,0,0.1,0,0.1L13.2,15.5
	C13.2,15.5,13.2,15.5,13.2,15.5z M11.1,7.7l0.7-1.1c0.1-0.1,0.3-0.2,0.4-0.2l1.3,0.4c0.4,0.1,0.7,0.5,0.6,0.9l-0.1,0.9l1.2,0.3
	c0.3,0.1,0.5,0.2,0.6,0.5c0.1,0.2,0.1,0.5,0,0.7l-0.3,0.7l1.5,0.7c0.2,0.1,0.3,0.2,0.4,0.4c-0.5-0.2-1.1-0.3-1.7-0.3
	c-1,0-2,0.4-2.7,1c0,0,0-0.1-0.1-0.1l-0.4-0.6c-0.4-0.5-0.8-0.9-1.4-1.3l0.7-1l-0.7-0.6C11,8.5,10.9,8.1,11.1,7.7z M6.8,10.3
	c0.9,0.2,2.9,0.7,4.1,1.8l0.2,0.2c0.1,0.1,0.2,0.2,0.3,0.3l0.2,0.3c0,0.1,0.1,0.1,0.1,0.2l0.1,0.1l0.5-0.2l-0.4,0.3l0.5-0.2
	l-0.4,0.3L12,14c-0.2,0.5-0.4,1-0.4,1.6h-0.9l-2.7-4.1c-0.2-0.4-0.7-0.5-1.1-0.2c-0.2,0.1-0.3,0.3-0.3,0.5s0,0.4,0.1,0.6l2.2,3.2
	H6.1C5.4,13.7,6.4,11.3,6.8,10.3z M23.9,25.9c-0.2,0.1-0.4,0.2-0.7,0.2H9.8c-0.3,0-0.5-0.1-0.7-0.2c-1.8-1.4-3.1-3.2-3.9-5.3h22.6
	C27,22.7,25.7,24.5,23.9,25.9z M28.3,19H4.7c-0.1-0.6-0.2-1.3-0.3-1.9h24.1C28.5,17.7,28.4,18.4,28.3,19z"/>
</svg>
