<?xml version="1.0" encoding="utf-8"?>
<!-- Generator: Adobe Illustrator 23.0.1, SVG Export Plug-In . SVG Version: 6.00 Build 0)  -->
<svg version="1.1" id="Capa_1" xmlns="http://www.w3.org/2000/svg" xmlns:xlink="http://www.w3.org/1999/xlink" x="0px" y="0px"
	 viewBox="0 0 32.9 32.8" style="enable-background:new 0 0 32.9 32.8;" xml:space="preserve">
<path id="BEBIDAS" d="M22.2,16.1c1.7-1.9,0.7-6.1,0.1-7.1C21.5,8,20.6,7,19.7,6h0.8V2.9c0.1-1.4-0.9-2.7-2.3-2.9l-3.6,0l-0.2,0
	c-1.3,0.3-2.3,1.5-2.2,2.9V6h0.8C12,7,11.1,8,10.3,9c-0.6,1-1.6,5.2,0.1,7.1c0.4,0.4,0.6,1,0.5,1.5c-0.8,0.8-1.3,1.9-1.3,3V30
	l0.1,0.3c0.5,1.6,2.2,2.6,3.8,2.1c0.1,0,0.2-0.1,0.3-0.1l0.2-0.2c0.1-0.1,0.2-0.2,0.3-0.2c0.5,0.6,1.2,0.9,2,0.9c0,0,0.1,0,0.2,0
	c0.7,0,1.4-0.3,1.9-0.9c0.1,0.1,0.2,0.2,0.4,0.3l0.2,0.1c0.9,0.4,2.9,0.5,4-2l0.1-9.6c0-1.1-0.5-2.2-1.3-3.1
	C21.6,17.1,21.8,16.5,22.2,16.1z M14.4,3.8V2.9c0-0.3,0.1-0.5,0.3-0.7l3.3,0c0.1,0,0.4,0.1,0.4,0.7v0.9L14.4,3.8z M14.7,7.4l0.6-0.6
	V6h2.1v0.8l0.3,0.3c0.9,0.9,1.8,1.9,2.6,2.9h-8C13,9.1,13.8,8.2,14.7,7.4L14.7,7.4z M16.6,30.5c0,0.1-0.2,0.2-0.3,0.1h-0.1
	c-0.1,0-0.2-0.1-0.2-0.2c-0.2-0.5-0.7-0.8-1.2-0.9c-0.1,0-0.2,0-0.3,0c-0.7,0.1-1.3,0.3-1.8,0.8c-0.2,0-0.6-0.1-0.9-0.7v-2.6h9v2.6
	c-0.4,0.7-0.7,0.8-0.9,0.7c-0.6-0.5-1.3-0.8-2.1-0.8C17.3,29.7,16.8,30,16.6,30.5L16.6,30.5z M19.7,18.6c0,0.1,0.1,0.3,0.2,0.4
	c0.5,0.4,0.8,1,0.9,1.7v4.3h-9v-4.3c0.1-0.6,0.4-1.2,0.9-1.6c0.1-0.1,0.2-0.2,0.3-0.4c0.4-1.4,0.1-2.9-0.9-3.9
	c-0.4-0.7-0.5-1.6-0.3-2.4h9.2c0.2,0.8,0,1.7-0.3,2.4C19.6,15.7,19.3,17.2,19.7,18.6L19.7,18.6z"/>
</svg>
