<?xml version="1.0" encoding="utf-8"?>
<!-- Generator: Adobe Illustrator 25.1.0, SVG Export Plug-In . SVG Version: 6.00 Build 0)  -->
<svg version="1.1" id="Capa_1" xmlns="http://www.w3.org/2000/svg" xmlns:xlink="http://www.w3.org/1999/xlink" x="0px" y="0px"
	 viewBox="0 0 367.8 372.3" style="enable-background:new 0 0 367.8 372.3;" xml:space="preserve">
<style type="text/css">
	.st0{fill:#FFCC00;}
	.st1{fill:#FFFFFF;}
</style>
<path class="st0" d="M198.8,92c-42.4-22.8-80.3-35.8-102.1-35.8c-6,0-10.8,1-14.2,3.1c-18.7,11.6-30.2,82.3-25.6,157.6
	c3.6,60,15.6,91.7,25.9,96.6c18.5,8.7,83.6-15.6,148.2-55.4c54.4-33.4,78.7-59.6,78.7-70.7C309.8,167.3,261.1,125.4,198.8,92"/>
<path class="st1" d="M231.1,258c-64.6,39.7-129.7,64.1-148.2,55.4c-10.3-4.8-22.3-36.6-25.9-96.6c-4.5-75.3,7-146,25.6-157.6
	c3.3-2.1,8.1-3.1,14.2-3.1c21.8,0,59.7,13,102.1,35.8c62.2,33.4,111,75.3,111,95.3C309.8,198.4,285.5,224.5,231.1,258 M203.7,83.3
	c-22.5-12.1-98.1-50.2-126.6-32.4C48.6,68.6,43.4,160.2,46.8,217.4c1.7,27.9,8.1,93.9,31.7,104.9c3.8,1.8,8.7,2.6,14.4,2.6
	c33.1,0,94.3-28.2,143.6-58.6c25.1-15.4,83.5-54,83.5-79.1C319.9,158.8,259.7,113.4,203.7,83.3"/>
<path d="M216.9,135.1c-10.2-6.1-24.6-9.2-43.2-9.2c-17.7,0-33.1,0.9-46.2,2.6c-2.5,0.3-4.4,0.9-5.8,1.8c-1.4,0.9-2.3,2.2-2.8,4.1
	l-3.6,17.4H166l2.7-16l33,39.3l-45.9,38.6l3-17.9h-52.5l-15.4,74.7v0.2v0.6c0,1,0.3,1.7,1,2.3c0.7,0.6,1.6,0.9,2.6,0.9h23.3
	c1.2,0,2.4-0.4,3.4-1.1c1.1-0.7,1.7-1.7,1.9-2.9l10.7-44.7c0.8,0,2.1,0.1,3.8,0.1c1.7,0.1,3.5,0.2,5.3,0.2c1.9,0.1,3.8,0.1,6,0.2
	c2.1,0.1,3.9,0.1,5.5,0.1c12.9,0,24.3-1.9,34.6-4c31.5-6.2,43.1-37.3,43.2-61C232.2,150.1,227.1,141.3,216.9,135.1"/>
</svg>
