<?xml version="1.0" encoding="utf-8"?>
<!-- Generator: Adobe Illustrator 23.0.1, SVG Export Plug-In . SVG Version: 6.00 Build 0)  -->
<svg version="1.1" id="Capa_1" xmlns="http://www.w3.org/2000/svg" xmlns:xlink="http://www.w3.org/1999/xlink" x="0px" y="0px"
	 viewBox="0 0 32.9 32.8" style="enable-background:new 0 0 32.9 32.8;" xml:space="preserve">
<g>
	<g>
		<path d="M11.4,17c-1.8,0-3.3-1.5-3.3-3.3c0-1.8,1.5-3.3,3.3-3.3s3.3,1.5,3.3,3.3C14.8,15.5,13.3,17,11.4,17z M11.4,12.7
			c-0.6,0-1,0.5-1,1c0,0.6,0.5,1,1,1c0.6,0,1-0.5,1-1C12.4,13.1,12,12.7,11.4,12.7z"/>
	</g>
	<g>
		<path d="M20.1,23.6c-1.8,0-3.3-1.5-3.3-3.3c0-1.8,1.5-3.3,3.3-3.3c1.8,0,3.3,1.5,3.3,3.3C23.5,22.1,22,23.6,20.1,23.6z M20.1,19.2
			c-0.6,0-1,0.5-1,1c0,0.6,0.5,1,1,1c0.6,0,1-0.5,1-1C21.1,19.7,20.7,19.2,20.1,19.2z"/>
	</g>
	<g>
		<path d="M11.4,23.6c-0.3,0-0.5-0.1-0.7-0.3c-0.5-0.4-0.6-1.1-0.2-1.6l9.8-12c0.4-0.5,1.1-0.6,1.6-0.2c0.5,0.4,0.6,1.1,0.2,1.6
			l-9.8,12C12.1,23.4,11.8,23.6,11.4,23.6z"/>
	</g>
	<g>
		<path d="M16.3,30.1C8.8,30.1,2.6,24,2.6,16.4c0-7.5,6.1-13.7,13.7-13.7C23.9,2.7,30,8.9,30,16.4C30,24,23.9,30.1,16.3,30.1z
			 M16.3,5.1C10.1,5.1,5,10.2,5,16.4s5.1,11.3,11.3,11.3s11.3-5.1,11.3-11.3S22.6,5.1,16.3,5.1z"/>
	</g>
</g>
</svg>
